# xmcd
#
# Track frame offsets:
#  150
#  17480
#  29990
#  48421
#  66719
#  93865
#  107309
#  123388
#  137355
#  152554
#
# Disc length: 2250 seconds
#
# Revision: 0
# Processed by: cddbd v1.5.1PL2 Copyright (c) Steve Scherf et al.
# Submitted via: Collectorz.com_Music_Collector 6.9
#
DISCID=7e08c80a
DTITLE=Atlanta - Pictures
DYEAR=2005
DGENRE=
TTITLE0=dixie dreaming
TTITLE1=wishful drinkin'
TTITLE2=pictures
TTITLE3=sweet was out rose
TTITLE4=blue side of the grey
TTITLE5=atlanta burned again last night
TTITLE6=sweet country music
TTITLE7=(nothing left between us) but alabama
TTITLE8=you are the wine
TTITLE9=long cool woman in a black dress
EXTD=
EXTT0=
EXTT1=
EXTT2=
EXTT3=
EXTT4=
EXTT5=
EXTT6=
EXTT7=
EXTT8=
EXTT9=
PLAYORDER=
